<mxfile host="app.diagrams.net" modified="2024-03-06T21:26:16.577Z" agent="Mozilla/5.0 (Windows NT 10.0; Win64; x64) AppleWebKit/537.36 (KHTML, like Gecko) Chrome/122.0.0.0 Safari/537.36 Edg/122.0.0.0" etag="zVmTqcV9aBDTyP712Zy5" version="24.0.2" type="device">
  <diagram name="Page-1" id="0apmkiMUXIjm-Re4l5rd">
    <mxGraphModel dx="727" dy="401" grid="1" gridSize="10" guides="1" tooltips="1" connect="1" arrows="1" fold="1" page="1" pageScale="1" pageWidth="850" pageHeight="1100" math="0" shadow="0">
      <root>
        <mxCell id="0" />
        <mxCell id="1" parent="0" />
        <mxCell id="nBDaYTYVXQHS3_Wibt1u-1" value="" style="ellipse;whiteSpace=wrap;html=1;" vertex="1" parent="1">
          <mxGeometry x="440" y="70" width="120" height="80" as="geometry" />
        </mxCell>
        <mxCell id="nBDaYTYVXQHS3_Wibt1u-2" value="Car Owner&lt;div&gt;2.3.1.1&lt;/div&gt;" style="shape=umlActor;verticalLabelPosition=bottom;verticalAlign=top;html=1;outlineConnect=0;fontStyle=0" vertex="1" parent="1">
          <mxGeometry x="140" y="30" width="50" height="90" as="geometry" />
        </mxCell>
        <mxCell id="nBDaYTYVXQHS3_Wibt1u-3" value="Shop Owner&lt;div&gt;2.3.1.2&lt;/div&gt;" style="shape=umlActor;verticalLabelPosition=bottom;verticalAlign=top;html=1;outlineConnect=0;movable=1;resizable=1;rotatable=1;deletable=1;editable=1;locked=0;connectable=1;" vertex="1" parent="1">
          <mxGeometry x="140" y="170" width="50" height="90" as="geometry" />
        </mxCell>
        <mxCell id="nBDaYTYVXQHS3_Wibt1u-5" value="Workshop Owner&lt;div&gt;2.3.1.3&lt;/div&gt;" style="shape=umlActor;verticalLabelPosition=bottom;verticalAlign=top;html=1;outlineConnect=0;" vertex="1" parent="1">
          <mxGeometry x="120" y="300" width="50" height="90" as="geometry" />
        </mxCell>
        <mxCell id="nBDaYTYVXQHS3_Wibt1u-6" value="Scrapyard Owner&lt;div&gt;2.3.1.4&lt;/div&gt;" style="shape=umlActor;verticalLabelPosition=bottom;verticalAlign=top;html=1;outlineConnect=0;" vertex="1" parent="1">
          <mxGeometry x="120" y="430" width="50" height="100" as="geometry" />
        </mxCell>
        <mxCell id="nBDaYTYVXQHS3_Wibt1u-7" value="" style="rounded=0;whiteSpace=wrap;html=1;" vertex="1" parent="1">
          <mxGeometry x="220" y="20" width="490" height="750" as="geometry" />
        </mxCell>
        <mxCell id="nBDaYTYVXQHS3_Wibt1u-8" value="" style="ellipse;whiteSpace=wrap;html=1;" vertex="1" parent="1">
          <mxGeometry x="250" y="80" width="120" height="80" as="geometry" />
        </mxCell>
        <mxCell id="nBDaYTYVXQHS3_Wibt1u-9" value="" style="rounded=0;whiteSpace=wrap;html=1;" vertex="1" parent="1">
          <mxGeometry x="220" y="20" width="120" height="30" as="geometry" />
        </mxCell>
        <mxCell id="nBDaYTYVXQHS3_Wibt1u-10" value="" style="ellipse;whiteSpace=wrap;html=1;" vertex="1" parent="1">
          <mxGeometry x="250" y="180" width="120" height="80" as="geometry" />
        </mxCell>
        <mxCell id="nBDaYTYVXQHS3_Wibt1u-11" value="" style="ellipse;whiteSpace=wrap;html=1;" vertex="1" parent="1">
          <mxGeometry x="570" y="40" width="120" height="80" as="geometry" />
        </mxCell>
        <mxCell id="nBDaYTYVXQHS3_Wibt1u-12" value="" style="ellipse;whiteSpace=wrap;html=1;" vertex="1" parent="1">
          <mxGeometry x="570" y="140" width="120" height="80" as="geometry" />
        </mxCell>
        <mxCell id="nBDaYTYVXQHS3_Wibt1u-13" value="" style="ellipse;whiteSpace=wrap;html=1;" vertex="1" parent="1">
          <mxGeometry x="250" y="290" width="120" height="80" as="geometry" />
        </mxCell>
        <mxCell id="nBDaYTYVXQHS3_Wibt1u-14" value="" style="ellipse;whiteSpace=wrap;html=1;" vertex="1" parent="1">
          <mxGeometry x="570" y="250" width="120" height="80" as="geometry" />
        </mxCell>
        <mxCell id="nBDaYTYVXQHS3_Wibt1u-15" value="" style="ellipse;whiteSpace=wrap;html=1;" vertex="1" parent="1">
          <mxGeometry x="570" y="355" width="120" height="80" as="geometry" />
        </mxCell>
        <mxCell id="nBDaYTYVXQHS3_Wibt1u-16" value="" style="ellipse;whiteSpace=wrap;html=1;" vertex="1" parent="1">
          <mxGeometry x="250" y="400" width="120" height="80" as="geometry" />
        </mxCell>
        <mxCell id="nBDaYTYVXQHS3_Wibt1u-17" value="" style="ellipse;whiteSpace=wrap;html=1;" vertex="1" parent="1">
          <mxGeometry x="407.5" y="30" width="120" height="80" as="geometry" />
        </mxCell>
        <mxCell id="nBDaYTYVXQHS3_Wibt1u-18" value="" style="ellipse;whiteSpace=wrap;html=1;" vertex="1" parent="1">
          <mxGeometry x="405" y="120" width="120" height="80" as="geometry" />
        </mxCell>
        <mxCell id="nBDaYTYVXQHS3_Wibt1u-19" value="" style="ellipse;whiteSpace=wrap;html=1;" vertex="1" parent="1">
          <mxGeometry x="405" y="220" width="120" height="80" as="geometry" />
        </mxCell>
        <mxCell id="nBDaYTYVXQHS3_Wibt1u-20" value="" style="ellipse;whiteSpace=wrap;html=1;" vertex="1" parent="1">
          <mxGeometry x="405" y="320" width="120" height="80" as="geometry" />
        </mxCell>
        <mxCell id="nBDaYTYVXQHS3_Wibt1u-22" value="" style="ellipse;whiteSpace=wrap;html=1;" vertex="1" parent="1">
          <mxGeometry x="405" y="420" width="120" height="80" as="geometry" />
        </mxCell>
        <mxCell id="nBDaYTYVXQHS3_Wibt1u-23" value="" style="ellipse;whiteSpace=wrap;html=1;" vertex="1" parent="1">
          <mxGeometry x="405" y="520" width="120" height="80" as="geometry" />
        </mxCell>
        <mxCell id="nBDaYTYVXQHS3_Wibt1u-24" value="" style="ellipse;whiteSpace=wrap;html=1;" vertex="1" parent="1">
          <mxGeometry x="250" y="640" width="120" height="80" as="geometry" />
        </mxCell>
        <mxCell id="nBDaYTYVXQHS3_Wibt1u-25" value="" style="ellipse;whiteSpace=wrap;html=1;" vertex="1" parent="1">
          <mxGeometry x="405" y="630" width="120" height="80" as="geometry" />
        </mxCell>
        <mxCell id="nBDaYTYVXQHS3_Wibt1u-27" value="" style="ellipse;whiteSpace=wrap;html=1;" vertex="1" parent="1">
          <mxGeometry x="570" y="570" width="120" height="80" as="geometry" />
        </mxCell>
        <mxCell id="nBDaYTYVXQHS3_Wibt1u-28" value="" style="ellipse;whiteSpace=wrap;html=1;" vertex="1" parent="1">
          <mxGeometry x="570" y="470" width="120" height="80" as="geometry" />
        </mxCell>
        <mxCell id="nBDaYTYVXQHS3_Wibt1u-29" value="" style="ellipse;whiteSpace=wrap;html=1;" vertex="1" parent="1">
          <mxGeometry x="250" y="510" width="120" height="80" as="geometry" />
        </mxCell>
        <mxCell id="nBDaYTYVXQHS3_Wibt1u-30" value="Mechanics&amp;nbsp;&lt;div&gt;2.3.2.1&lt;/div&gt;" style="shape=umlActor;verticalLabelPosition=bottom;verticalAlign=top;html=1;outlineConnect=0;" vertex="1" parent="1">
          <mxGeometry x="120" y="570" width="50" height="100" as="geometry" />
        </mxCell>
        <mxCell id="nBDaYTYVXQHS3_Wibt1u-31" value="&lt;div&gt;Car Dealership&lt;/div&gt;2.3.3.2" style="shape=umlActor;verticalLabelPosition=bottom;verticalAlign=top;html=1;outlineConnect=0;" vertex="1" parent="1">
          <mxGeometry x="750" y="450" width="45" height="80" as="geometry" />
        </mxCell>
        <mxCell id="nBDaYTYVXQHS3_Wibt1u-32" value="Auto Parts Shop&lt;div&gt;2.3.3.1&lt;/div&gt;" style="shape=umlActor;verticalLabelPosition=bottom;verticalAlign=top;html=1;outlineConnect=0;" vertex="1" parent="1">
          <mxGeometry x="742.5" y="310" width="60" height="90" as="geometry" />
        </mxCell>
        <mxCell id="nBDaYTYVXQHS3_Wibt1u-33" value="Scrapyard Mechanic&lt;div&gt;2.3.2.3&lt;/div&gt;" style="shape=umlActor;verticalLabelPosition=bottom;verticalAlign=top;html=1;outlineConnect=0;" vertex="1" parent="1">
          <mxGeometry x="750" y="170" width="50" height="80" as="geometry" />
        </mxCell>
        <mxCell id="nBDaYTYVXQHS3_Wibt1u-34" value="Workshop Mechanics&lt;div&gt;2.3.2.2&lt;/div&gt;" style="shape=umlActor;verticalLabelPosition=bottom;verticalAlign=top;html=1;outlineConnect=0;" vertex="1" parent="1">
          <mxGeometry x="750" y="30" width="50" height="90" as="geometry" />
        </mxCell>
        <mxCell id="nBDaYTYVXQHS3_Wibt1u-35" value="Car Agencies&lt;div&gt;2.3.3.3&lt;/div&gt;" style="shape=umlActor;verticalLabelPosition=bottom;verticalAlign=top;html=1;outlineConnect=0;" vertex="1" parent="1">
          <mxGeometry x="742.5" y="590" width="55" height="100" as="geometry" />
        </mxCell>
        <mxCell id="nBDaYTYVXQHS3_Wibt1u-41" value="Car Station" style="text;html=1;align=center;verticalAlign=middle;whiteSpace=wrap;rounded=0;" vertex="1" parent="1">
          <mxGeometry x="240" y="20" width="80" height="30" as="geometry" />
        </mxCell>
        <mxCell id="nBDaYTYVXQHS3_Wibt1u-42" value="Text" style="text;html=1;align=center;verticalAlign=middle;whiteSpace=wrap;rounded=0;" vertex="1" parent="1">
          <mxGeometry x="270" y="80" width="60" height="30" as="geometry" />
        </mxCell>
        <mxCell id="nBDaYTYVXQHS3_Wibt1u-43" value="Text" style="text;html=1;align=center;verticalAlign=middle;whiteSpace=wrap;rounded=0;" vertex="1" parent="1">
          <mxGeometry x="270" y="80" width="60" height="30" as="geometry" />
        </mxCell>
        <mxCell id="nBDaYTYVXQHS3_Wibt1u-44" value="Text" style="text;html=1;align=center;verticalAlign=middle;whiteSpace=wrap;rounded=0;" vertex="1" parent="1">
          <mxGeometry x="270" y="80" width="60" height="30" as="geometry" />
        </mxCell>
        <mxCell id="nBDaYTYVXQHS3_Wibt1u-45" value="Text" style="text;html=1;align=center;verticalAlign=middle;whiteSpace=wrap;rounded=0;" vertex="1" parent="1">
          <mxGeometry x="270" y="80" width="60" height="30" as="geometry" />
        </mxCell>
        <mxCell id="nBDaYTYVXQHS3_Wibt1u-46" value="Text" style="text;html=1;align=center;verticalAlign=middle;whiteSpace=wrap;rounded=0;" vertex="1" parent="1">
          <mxGeometry x="270" y="80" width="60" height="30" as="geometry" />
        </mxCell>
        <mxCell id="nBDaYTYVXQHS3_Wibt1u-47" value="Interact with posts from other platforms FR20" style="text;html=1;align=center;verticalAlign=middle;whiteSpace=wrap;rounded=0;" vertex="1" parent="1">
          <mxGeometry x="580" y="595" width="100" height="30" as="geometry" />
        </mxCell>
        <mxCell id="nBDaYTYVXQHS3_Wibt1u-48" value="&lt;font style=&quot;font-size: 10px;&quot;&gt;Create New Post, Add Picture, Caption and tags FR19&lt;/font&gt;" style="text;html=1;align=center;verticalAlign=middle;whiteSpace=wrap;rounded=0;" vertex="1" parent="1">
          <mxGeometry x="580" y="495" width="100" height="30" as="geometry" />
        </mxCell>
        <mxCell id="nBDaYTYVXQHS3_Wibt1u-49" value="Comment, Like and reshare on you Car profile FR18" style="text;html=1;align=center;verticalAlign=middle;whiteSpace=wrap;rounded=0;" vertex="1" parent="1">
          <mxGeometry x="580" y="380" width="100" height="30" as="geometry" />
        </mxCell>
        <mxCell id="nBDaYTYVXQHS3_Wibt1u-50" value="Share Post to other platforms FR17" style="text;html=1;align=center;verticalAlign=middle;whiteSpace=wrap;rounded=0;" vertex="1" parent="1">
          <mxGeometry x="575" y="272.5" width="110" height="35" as="geometry" />
        </mxCell>
        <mxCell id="nBDaYTYVXQHS3_Wibt1u-51" value="Share update to the Feed FR15" style="text;html=1;align=center;verticalAlign=middle;whiteSpace=wrap;rounded=0;" vertex="1" parent="1">
          <mxGeometry x="580" y="165" width="100" height="25" as="geometry" />
        </mxCell>
        <mxCell id="nBDaYTYVXQHS3_Wibt1u-52" value="Display Car FR14" style="text;html=1;align=center;verticalAlign=middle;whiteSpace=wrap;rounded=0;" vertex="1" parent="1">
          <mxGeometry x="600" y="60" width="60" height="30" as="geometry" />
        </mxCell>
        <mxCell id="nBDaYTYVXQHS3_Wibt1u-53" value="Display Car Effeciency FR13" style="text;html=1;align=center;verticalAlign=middle;whiteSpace=wrap;rounded=0;" vertex="1" parent="1">
          <mxGeometry x="420" y="655" width="90" height="30" as="geometry" />
        </mxCell>
        <mxCell id="nBDaYTYVXQHS3_Wibt1u-54" value="Display Total Maintenance FR12" style="text;html=1;align=center;verticalAlign=middle;whiteSpace=wrap;rounded=0;" vertex="1" parent="1">
          <mxGeometry x="410" y="545" width="110" height="30" as="geometry" />
        </mxCell>
        <mxCell id="nBDaYTYVXQHS3_Wibt1u-55" value="Add Car Chasis/VIN FR11" style="text;html=1;align=center;verticalAlign=middle;whiteSpace=wrap;rounded=0;" vertex="1" parent="1">
          <mxGeometry x="415" y="440" width="100" height="30" as="geometry" />
        </mxCell>
        <mxCell id="nBDaYTYVXQHS3_Wibt1u-56" value="Add Persistent Issues/Accidents&lt;div&gt;FR10&lt;/div&gt;" style="text;html=1;align=center;verticalAlign=middle;whiteSpace=wrap;rounded=0;" vertex="1" parent="1">
          <mxGeometry x="420" y="340" width="90" height="40" as="geometry" />
        </mxCell>
        <mxCell id="nBDaYTYVXQHS3_Wibt1u-57" value="Add Car Special Specs FR9" style="text;html=1;align=center;verticalAlign=middle;whiteSpace=wrap;rounded=0;" vertex="1" parent="1">
          <mxGeometry x="420" y="245" width="90" height="30" as="geometry" />
        </mxCell>
        <mxCell id="nBDaYTYVXQHS3_Wibt1u-58" value="Add Car Additional Pictures FR8" style="text;html=1;align=center;verticalAlign=middle;whiteSpace=wrap;rounded=0;" vertex="1" parent="1">
          <mxGeometry x="410" y="145" width="110" height="30" as="geometry" />
        </mxCell>
        <mxCell id="nBDaYTYVXQHS3_Wibt1u-59" value="Add Car Specs FR7" style="text;html=1;align=center;verticalAlign=middle;whiteSpace=wrap;rounded=0;" vertex="1" parent="1">
          <mxGeometry x="435" y="55" width="65" height="30" as="geometry" />
        </mxCell>
        <mxCell id="nBDaYTYVXQHS3_Wibt1u-61" value="Add Car using Form FR1" style="text;html=1;align=center;verticalAlign=middle;whiteSpace=wrap;rounded=0;" vertex="1" parent="1">
          <mxGeometry x="255" y="110" width="110" height="30" as="geometry" />
        </mxCell>
        <mxCell id="nBDaYTYVXQHS3_Wibt1u-62" value="Add Car using Image Recognition FR2" style="text;html=1;align=center;verticalAlign=middle;whiteSpace=wrap;rounded=0;" vertex="1" parent="1">
          <mxGeometry x="252.5" y="205" width="115" height="30" as="geometry" />
        </mxCell>
        <mxCell id="nBDaYTYVXQHS3_Wibt1u-63" value="Add Reguler Maintenance Schaduele FR3" style="text;html=1;align=center;verticalAlign=middle;whiteSpace=wrap;rounded=0;" vertex="1" parent="1">
          <mxGeometry x="245" y="305" width="125" height="50" as="geometry" />
        </mxCell>
        <mxCell id="nBDaYTYVXQHS3_Wibt1u-64" value="Add Time&amp;amp;Cost of Heavy Maintenance FR4" style="text;html=1;align=center;verticalAlign=middle;whiteSpace=wrap;rounded=0;" vertex="1" parent="1">
          <mxGeometry x="255" y="425" width="110" height="30" as="geometry" />
        </mxCell>
        <mxCell id="nBDaYTYVXQHS3_Wibt1u-65" value="Add Time&amp;amp;Cost of Precuanory Maintenance FR5" style="text;html=1;align=center;verticalAlign=middle;whiteSpace=wrap;rounded=0;" vertex="1" parent="1">
          <mxGeometry x="255" y="535" width="110" height="30" as="geometry" />
        </mxCell>
        <mxCell id="nBDaYTYVXQHS3_Wibt1u-66" value="Add Time&amp;amp;Cost of Crash Repairs FR6" style="text;html=1;align=center;verticalAlign=middle;whiteSpace=wrap;rounded=0;" vertex="1" parent="1">
          <mxGeometry x="255" y="665" width="110" height="30" as="geometry" />
        </mxCell>
      </root>
    </mxGraphModel>
  </diagram>
</mxfile>
